<?xml version="1.0" encoding="utf-8"?>
<!-- Generator: Adobe Illustrator 16.0.0, SVG Export Plug-In . SVG Version: 6.00 Build 0)  -->
<!DOCTYPE svg PUBLIC "-//W3C//DTD SVG 1.1//EN" "http://www.w3.org/Graphics/SVG/1.1/DTD/svg11.dtd">
<svg version="1.1" id="Layer_1" xmlns="http://www.w3.org/2000/svg" xmlns:xlink="http://www.w3.org/1999/xlink" x="0px" y="0px"
	 width="841.89px" height="595.28px" viewBox="0 0 841.89 595.28" enable-background="new 0 0 841.89 595.28" xml:space="preserve">
<g>
	<linearGradient id="SVGID_1_" gradientUnits="userSpaceOnUse" x1="324.2295" y1="286.1108" x2="517.6631" y2="286.1108">
		<stop  offset="0" style="stop-color:#47C1F0"/>
		<stop  offset="0.5" style="stop-color:#00A0E4"/>
		<stop  offset="1" style="stop-color:#008CD3"/>
	</linearGradient>
	<path fill="url(#SVGID_1_)" d="M463.103,167.743h-84.315c-30.133,0-54.558,24.43-54.558,54.555v84.314
		c0,21.09,11.982,39.347,29.49,48.431l-8.869,49.436l54.068-43.303h64.184c30.13,0,54.561-24.431,54.561-54.563v-84.314
		C517.663,192.173,493.232,167.743,463.103,167.743z"/>
	<linearGradient id="SVGID_2_" gradientUnits="userSpaceOnUse" x1="155.7671" y1="297" x2="686.1221" y2="297">
		<stop  offset="0" style="stop-color:#47C1F0"/>
		<stop  offset="0.5" style="stop-color:#00A0E4"/>
		<stop  offset="1" style="stop-color:#008CD3"/>
	</linearGradient>
	<path fill="url(#SVGID_2_)" d="M643.265,332.819c3.164-15.082,4.853-30.702,4.853-46.71c0-57.063-21.198-109.237-56.07-149.182
		c3.305-5.102,5.246-11.169,5.246-17.7c0-18.029-14.615-32.64-32.639-32.64c-8.261,0-15.781,3.094-21.53,8.154
		c-35.312-22.622-77.223-35.803-122.178-35.803c-15.471,0-30.578,1.566-45.187,4.526c-5.472-10.348-16.335-17.407-28.856-17.407
		c-18.024,0-32.639,14.613-32.639,32.637c0,2.256,0.23,4.458,0.665,6.585c-62.194,32.965-107.36,93.939-118.49,166.03
		c-23.208,4.738-40.672,25.267-40.672,49.875c0,17.324,8.675,32.608,21.898,41.802l-4.006,22.327l19.005-15.222
		c3.485,1,7.121,1.61,10.869,1.844c15.939,52.543,50.445,97.054,95.844,125.933c-4.092,5.863-6.511,12.984-6.511,20.676
		c0,12.445,6.291,23.421,15.864,29.931l-3.494,19.469l17.281-13.839c2.121,0.389,4.299,0.621,6.531,0.621
		c17.369,0,31.865-12.243,35.367-28.568c18.078,4.651,37.021,7.127,56.531,7.127c69.728,0,132.189-31.604,173.893-81.21
		c1.139,0.891,2.289,1.766,3.495,2.568l-5.676,31.64l28.553-22.871c2.75,0.409,5.542,0.694,8.4,0.694
		c31.211,0,56.511-25.301,56.511-56.506C686.122,361.103,667.865,338.936,643.265,332.819z M420.946,499.481
		c-19.508,0-38.389-2.683-56.355-7.608c-3.133-16.796-17.842-29.511-35.542-29.511c-7.158,0-13.81,2.103-19.427,5.691
		c-43.202-26.533-76.267-68.008-91.967-117.18c22.833-5.024,39.934-25.348,39.934-49.689c0-26.787-20.706-48.694-46.98-50.708
		c11.167-66.106,52.8-121.972,109.947-152.577c1.46,1.998,3.131,3.825,4.998,5.443l-3.807,21.208l17.638-14.123
		c2.418,0.571,4.928,0.905,7.52,0.905c18.026,0,32.64-14.613,32.64-32.64c0-0.632-0.06-1.248-0.096-1.871
		c13.43-2.658,27.3-4.083,41.499-4.083c41.884,0,80.956,12.181,113.953,33.115c-1.839,4.085-2.885,8.602-2.885,13.372
		c0,11.621,6.096,21.794,15.242,27.576l-3.283,18.279l16.827-13.47c1.264,0.149,2.548,0.248,3.854,0.248
		c6.489,0,12.518-1.915,17.599-5.177c32.391,37.426,52.062,86.158,52.062,139.427c0,15.433-1.688,30.473-4.816,44.986
		c-31.153,0.062-56.392,25.331-56.392,56.505c0,13.088,4.495,25.104,11.964,34.686C545.9,469.416,486.872,499.481,420.946,499.481z"
		/>
	<g>
		<path fill="#FFFFFF" d="M394.094,264.457c0,7.417-6.01,13.425-13.424,13.425c-7.412,0-13.427-6.008-13.427-13.425
			c0-7.414,6.016-13.422,13.427-13.422C388.084,251.035,394.094,257.043,394.094,264.457z"/>
		<path fill="#FFFFFF" d="M434.373,264.457c0,7.417-6.011,13.425-13.427,13.425c-7.412,0-13.43-6.008-13.43-13.425
			c0-7.414,6.018-13.422,13.43-13.422C428.362,251.035,434.373,257.043,434.373,264.457z"/>
		<circle fill="#FFFFFF" cx="461.22" cy="264.457" r="13.425"/>
	</g>
</g>
</svg>
